<?xml version="1.0" encoding="UTF-8"?><svg id="Layer_1" xmlns="http://www.w3.org/2000/svg" viewBox="0 0 1200 1200"><defs><style>.cls-1{fill-rule:evenodd;}.cls-1,.cls-2{fill:#06481d;}.cls-3{fill:#ef9a31;}.cls-4{fill:#f7cf54;}</style></defs><rect class="cls-3" width="1200" height="1200"/><path class="cls-1" d="m791.87,451.02c16.14,6.46,84.96,94.74,95.89,98.52,10.94,3.78,71.87,19.91,84.41,20.58,9.71.19,8.17,11.71,7.55,19.53.46,21.45-7.38,18.05-7.38,18.05l-3.06,63.2,7.3.09s2.56,5.41,2.47,12.2c-.07,6.81-.69,15.16-8.56,17.15-7.86,2-57,2.99-57,2.99,0,0-13.47-54.52-49.52-54.4-36.05.11-49.08-3.19-64.99,17.53-15.92,20.73-21.41,43.67-21.41,43.67l-313.46-3.62s-9.2-17.35-13.78-27.86c-4.58-10.51-13.3-24.2-40.47-24.51-27.17-.32-47.02-1.07-59.82,21.27-12.8,22.33-14.93,27.02-21.72,26.94-6.8-.09-60.54-6.98-85.01-13.55-24.49-6.55-2.3-117.64-2.3-117.64,0,0,33.14-109.41,46.28-116.05,13.14-6.65,147.6-21.82,276.11-20.34,128.5,1.48,212.36,9.77,228.47,16.23Z"/><path class="cls-1" d="m847.86,641.5c-32.13-.37-58.49,25.39-58.86,57.54-.36,32.15,25.39,58.52,57.52,58.89,32.15.37,58.49-25.39,58.86-57.54.39-32.16-25.37-58.52-57.52-58.89Z"/><path class="cls-1" d="m398.48,644.14c-32.14-.37-58.48,25.4-58.86,57.55-.36,32.16,25.38,58.53,57.52,58.89,32.14.37,58.48-25.4,58.86-57.54.35-32.15-25.39-58.52-57.52-58.9Z"/><path class="cls-2" d="m523.38,378.81s41.77,19.73,50.3,75.71c0,0,3.55-75.71-50.3-75.71Z"/><path class="cls-2" d="m576.08,437.54c8.69-29.37,32.15-44.26,32.15-44.26-20.13,20.13-26.13,39.46-26.13,39.46,22.93-14.93,46.12-53.93,46.12-53.93-53.59,0-52.15,58.73-52.15,58.73Z"/><path class="cls-4" d="m786.63,560.62c1.38,0,2.36-.99,2.36-2.36v-10.25c0-1.28-.99-2.27-2.36-2.27h-1.97v-48.48c0-3.94-1.87-5.62-5.62-5.62h-20.3c-1.38,0-2.36.99-2.36,2.36v10.25c0,1.28.99,2.27,2.36,2.27h1.87v39.22h-1.87c-1.38,0-2.36.99-2.36,2.27v10.25c0,1.38.99,2.36,2.36,2.36h27.89Zm-51.63-1.28c3.25,3.25,7.69,3.35,11.04,0l5.12-5.12c3.25-3.25,3.35-7.69-.1-11.13l-1.38-1.38v-26.7c0-3.94-1.87-5.62-5.62-5.62h-20.1c-1.38,0-2.36.99-2.36,2.36v10.25c0,1.28.99,2.27,2.36,2.27h1.68v17.84c0,2.27-1.18,3.65-3.84,3.65-2.46,0-3.74-1.38-3.74-3.65v-27c0-4.04-1.87-5.72-5.72-5.72h-19.9c-1.38,0-2.36.99-2.36,2.36v10.25c0,1.28.99,2.27,2.36,2.27h1.68v17.54c0,12.91,7.98,20.3,20.69,20.3,7,0,12.51-2.46,15.77-7.19l4.43,4.43Zm-54.1-13.6v-21.48h4.43c1.38,0,2.56-1.18,2.56-2.56v-9.76c0-1.38-1.18-2.56-2.56-2.56h-5.12v-2.36c0-.59.3-.89.99-.89h2.17c2.96,0,4.53-1.48,4.53-4.24v-5.52c0-3.15-1.77-4.73-5.81-4.73h-8.97c-12.02,0-16.26,5.32-16.26,15.67v2.07h-2.66c-1.48,0-2.66,1.18-2.66,2.56v9.76c0,1.38,1.18,2.56,2.66,2.56h2.66v21.48h-2.07c-1.38,0-2.36.99-2.36,2.27v10.25c0,1.38.99,2.36,2.36,2.36h28.18c1.38,0,2.36-.99,2.36-2.36v-10.25c0-1.28-.99-2.27-2.36-2.27h-2.07Zm-33.9,14.88c1.38,0,2.36-.99,2.36-2.36v-10.25c0-1.28-.99-2.27-2.36-2.27h-1.97v-30.74c0-3.94-1.87-5.62-5.62-5.62h-20.3c-1.38,0-2.36.99-2.36,2.36v10.25c0,1.28.99,2.27,2.36,2.27h1.87v21.48h-1.87c-1.38,0-2.36.99-2.36,2.27v10.25c0,1.38.99,2.36,2.36,2.36h27.89Zm-8.18-54.1c3.15,0,4.83-1.58,4.83-4.43v-5.91c0-2.96-1.38-4.53-4.83-4.53h-13.7c-3.45,0-4.83,1.58-4.83,4.53v5.91c0,2.86,1.68,4.43,4.83,4.43h13.7Zm-27.39,54.1c1.87,0,2.86-1.18,2.86-3.15v-9.16c0-1.48-1.08-2.56-2.66-2.56h-2.96c-1.28,0-1.77-.49-1.77-1.58v-19.9h4.73c1.48,0,2.66-1.18,2.66-2.56v-9.76c0-1.38-1.18-2.56-2.66-2.56h-5.12v-4.43c0-5.03-2.86-7.88-7.59-7.88h-8.47c-4.73,0-7.59,2.86-7.59,7.88v4.43h-2.96c-1.48,0-2.66,1.18-2.66,2.56v9.76c0,1.38,1.18,2.56,2.66,2.56h2.96v20.4c0,10.35,4.53,15.96,17.24,15.96h11.33Zm-66.22-2.36v-10.25c0-1.28-.99-2.27-2.36-2.27h-1.68v-17.84c0-2.27,1.18-3.65,3.84-3.65,2.46,0,3.74,1.38,3.74,3.65v27c0,4.04,1.87,5.72,5.72,5.72h19.9c1.38,0,2.36-.99,2.36-2.36v-10.25c0-1.28-.99-2.27-2.36-2.27h-1.68v-17.54c0-12.91-7.98-20.3-20.69-20.3-7,0-12.51,2.46-15.77,7.19l-4.43-4.43c-3.25-3.25-7.69-3.35-11.04,0l-5.12,5.12c-3.25,3.25-3.35,7.69.1,11.13l1.38,1.38v17.44h-1.58c-1.38,0-2.36.99-2.36,2.27v10.25c0,1.38.99,2.36,2.36,2.36h27.3c1.38,0,2.36-.99,2.36-2.36Zm-53.51,1.08c3.25,3.25,7.69,3.35,11.04,0l5.12-5.12c3.25-3.25,3.35-7.69-.1-11.13l-1.38-1.38v-26.7c0-3.94-1.87-5.62-5.62-5.62h-20.1c-1.38,0-2.36.99-2.36,2.36v10.25c0,1.28.99,2.27,2.36,2.27h1.68v17.84c0,2.27-1.18,3.65-3.84,3.65-2.46,0-3.74-1.38-3.74-3.65v-27c0-4.04-1.87-5.72-5.72-5.72h-19.9c-1.38,0-2.36.99-2.36,2.36v10.25c0,1.28.99,2.27,2.36,2.27h1.68v17.54c0,12.91,7.98,20.3,20.69,20.3,7,0,12.51-2.46,15.77-7.19l4.43,4.43Zm-80.01-15.57v-17.44c0-2.36,1.18-3.65,4.14-3.65s4.14,1.28,4.14,3.65v17.44c0,2.27-1.18,3.55-4.14,3.55s-4.14-1.28-4.14-3.55Zm-24.14-14.98v12.51c0,13.8,11.53,20.79,28.28,20.79s28.28-7,28.28-20.79v-12.51c0-13.7-11.43-20.89-28.28-20.89s-28.28,7.19-28.28,20.89Zm-40.4,18.03v-14.49h7.19c2.76,0,4.04,1.58,4.04,4.34v5.81c0,2.76-1.28,4.34-4.04,4.34h-7.19Zm0-41.39h6.6c2.76,0,4.04,1.58,4.04,4.34v5.22c0,2.76-1.28,4.34-4.04,4.34h-6.6v-13.89Zm36.46,38.13v-3.55c0-7.88-4.83-12.81-13.7-14.68,8.38-1.77,12.91-6.11,12.91-13.89v-2.76c0-11.23-8.67-17.05-26.9-17.05h-36.16c-1.38,0-2.46.99-2.46,2.36v10.54c0,1.28,1.08,2.27,2.46,2.27h2.27v38.63h-2.27c-1.38,0-2.46.99-2.46,2.27v10.54c0,1.38,1.08,2.36,2.46,2.36h36.95c18.23,0,26.9-5.81,26.9-17.05Z"/><path class="cls-4" d="m699.27,628.66c0-8.57-2.27-13.01-16.16-15.27l-12.61-2.07c-1.28-.2-1.77-.79-1.77-1.87v-.3c0-1.58,1.18-2.07,4.53-2.07,4.34,0,4.83.39,4.83,2.07v.3c0,1.48.89,2.07,2.46,2.07h15.37c1.38,0,2.36-.89,2.36-2.36v-.59c0-9.56-6.7-14.19-25.23-14.19s-26.01,7.49-26.01,17.64v1.77c0,8.57,2.36,13.2,16.06,15.37l12.71,2.07c1.28.3,1.77.79,1.77,1.77v.3c0,1.77-1.18,2.56-4.73,2.56-4.53,0-5.12-.79-5.12-2.56v-.1c0-1.58-.79-2.17-2.36-2.17h-15.47c-1.38,0-2.36.99-2.36,2.46v.49c0,9.76,6.8,14.58,25.52,14.58s26.21-7.59,26.21-18.03v-1.87Zm-85.93-19.02c2.76,0,3.84,1.18,3.84,3.55v16.46c0,2.36-1.08,3.65-3.84,3.65s-3.84-1.28-3.84-3.65v-16.46c0-2.36,1.08-3.55,3.84-3.55Zm13.2,36.16c3.25,3.25,7.69,3.35,11.04,0l5.12-5.12c3.25-3.25,3.25-7.78-.1-11.13l-1.38-1.38v-44.44c0-3.94-1.87-5.62-5.62-5.62h-20c-1.38,0-2.36.99-2.36,2.36v10.25c0,1.28.99,2.27,2.36,2.27h1.58v5.32c-2.86-1.97-6.4-2.96-10.64-2.96-11.23,0-21.28,6.8-21.28,19.9v12.42c0,13.7,10.25,20.89,21.78,20.89,6.8,0,12.12-2.36,15.37-6.9l4.14,4.14Zm-77.65-15.57v-17.44c0-2.36,1.18-3.65,4.14-3.65s4.14,1.28,4.14,3.65v17.44c0,2.27-1.18,3.55-4.14,3.55s-4.14-1.28-4.14-3.55Zm-24.14-14.98v12.51c0,13.8,11.53,20.79,28.28,20.79s28.28-7,28.28-20.79v-12.51c0-13.7-11.43-20.89-28.28-20.89s-28.28,7.19-28.28,20.89Zm-36.36,14.98v-17.44c0-2.36,1.18-3.65,4.14-3.65s4.14,1.28,4.14,3.65v17.44c0,2.27-1.18,3.55-4.14,3.55s-4.14-1.28-4.14-3.55Zm-24.14-14.98v12.51c0,13.8,11.53,20.79,28.28,20.79s28.28-7,28.28-20.79v-12.51c0-13.7-11.43-20.89-28.28-20.89s-28.28,7.19-28.28,20.89Zm-54.89,31.83h30.15c1.38,0,2.46-.99,2.46-2.36v-10.54c0-1.28-1.08-2.27-2.46-2.27h-2.86v-9.95h9.85c4.04,0,6.9-2.76,6.9-6.8v-2.56c0-4.04-2.86-6.8-6.9-6.8h-9.85v-13.2h11.13v5.72c0,3.15,1.87,5.03,4.83,5.03h8.67c3.05,0,4.93-1.87,4.93-5.03v-14.88c0-3.74-1.77-5.32-5.22-5.32h-51.63c-1.38,0-2.46.99-2.46,2.36v10.54c0,1.28,1.08,2.27,2.46,2.27h2.27v38.63h-2.27c-1.38,0-2.46.99-2.46,2.27v10.54c0,1.38,1.08,2.36,2.46,2.36Z"/></svg>